<!-- Created with Inkscape (http://www.inkscape.org/) -->
<svg width="1024" height="600" version="1.1" viewBox="0 0 1024 600" xmlns="http://www.w3.org/2000/svg">
 <g>
  <path d="m147.96 69.482c-5.7667-0.0351-11.615 0.0997-17.49 0.3698l-19.085 142.62c58.785 4.8952 118.08 4.4106 132.94-63.911 7.5826-62.561-40.618-78.741-96.363-79.081zm15.06 31.112c35.393 3.7271 41.848 19.52 41.342 37.167-0.70345 24.513-21.567 41.746-51.205 40.582z" style="fill:#f49707;stroke-width:1.4792"/>
  <path d="m264.02 71.592-17.067 140.2h94.683l2.8446-34.744-54.453-0.81273 4.0636-20.318 47.342-0.40638 3.4541-32.509-50.796 0.40637 3.2509-19.506 52.828 0.40636 4.8764-32.509z" style="fill:#f49707;stroke-width:1.4792"/>
  <path d="m667.94 71.811-17.067 140.2h94.683l2.8446-34.744-54.453-0.81273 4.0636-20.318 47.342-0.40638 3.4541-32.509-50.796 0.40637 3.2509-19.506 52.828 0.40636 4.8764-32.509z" style="fill:#f49707;stroke-width:1.4792"/>
  <path d="m372.93 72.201-18.693 136.54 87.775 2.4382 4.8764-34.135-52.015-2.4382 13.816-104.03z" style="fill:#f49707;stroke-width:1.4792"/>
  <path d="m472.08 71.389-20.466 140.46 38.921-0.28734 16.246-141.99z" style="fill:#f49707;stroke-width:1.4792"/>
  <path d="m516.78 70.576 28.634 142.9 47.138-0.77189 69.181-142.04-49.536 1.872-36.901 94.753-21.566-95.238z" style="fill:#f49707;stroke-width:1.4792"/>
  <path d="m778.48 71.389-17.88 140.6h38.198l5.0789-47.14 12.599 1.8287 19.099 44.294 42.26 1.2192-26.209-59.126c26.065-7.9375 50.337-61.637-5.6884-78.428-13.422-3.9677-43.128-2.7533-67.458-3.2501zm48.015 30.791c18.097-0.44045 16.099 23.806 7.0867 28.486-7.3055 3.7931-13.923 4.6966-26.928 5.31l2.655-32.995s14.273-0.62546 16.311-0.75981c0.29745-0.0196 0.58812-0.0335 0.87538-0.0404z" style="fill:#f49707;stroke-width:1.4792"/>
  <path d="m910.55 210.98 6.2987-53.64-43.684-86.353 44.904-0.20318 19.709 45.31 35.76-45.513 38.198 1.6255-51.609 80.664-10.159 59.126z" style="fill:#f49707;stroke-width:1.4792"/>
  <path d="m132.02 530.93 39.653-293.09 174.71 0.57469-11.494 69.537-94.824 1.7241-5.7469 48.848h78.732l-5.7469 68.963-81.031 0.57469-16.666 101.72z" style="fill:#f49707;stroke-width:1.4792"/>
  <path d="m499.82 236.7-98.847 1.1469-95.398 295.39 82.181-1.1469 10.918-51.147 76.434 0.57202 10.92 51.722 75.857-1.7218zm-53.79 77.044 15.554 101.64-43.179 0.80605z" style="fill:#f49707;stroke-width:1.4792"/>
  <path d="m771.07 236.69-11.494 75.284 74.709-1.1494-29.309 219.53 80.456-0.57469 24.712-219.53h71.836l10.919-72.411z" style="fill:#f49707;stroke-width:1.4792"/>
  <path d="m590.62 441.86-45.4 60.917c80 51.687 198.77 56.562 225.85-34.481 39.28-132.03-133.58-96.019-113.79-152.87 13.831-17.828 39.26-17.952 82.18 8.6203l32.757-65.514c-67.397-29.001-161.86-46.09-187.92 23.562-54.822 146.53 130.2 124.79 105.74 174.13-14.551 29.357-60.526 0.91657-99.421-14.367z" style="fill:#f49707;stroke-width:1.4792"/>
  <path d="m10.425 285.43 148.85-0.0311 5.5818-40.251-122.8-0.21707z" style="fill:#f49707;stroke-width:1.2667"/>
  <path d="m26.335 338.7 125.01-1.2535 5.5818-40.251-103.85-0.21707z" style="fill:#f49707;stroke-width:1.2667"/>
  <path d="m58.033 389.52 84.657-0.0311 5.5818-40.251-66.051 0.24809z" style="fill:#f49707;stroke-width:1.2667"/>
 </g>
</svg>
