<svg width="650pt" height="400pt" preserveAspectRatio="xMidYMid" version="1.0" viewBox="0 0 650 400" xmlns="http://www.w3.org/2000/svg">
 <g transform="matrix(.1 0 0 -.1 0 512)">
  <path d="m3015.8 4929.2c-1410 2-1493 2-1542-15-100-35-170.99-114.99-192.99-215.99-8-36-9.998-159.01-7.998-1111l2.9883-1345 28.008-57.012c32-64 80.001-110.99 146-141.99 41-18 68.002-21.009 232-24.009l185-3.9991 11.001-75.996c15-100 43.998-178 97.998-258l42.993-63.999c475.6-398.64 884.02-21.923 904.01 0l42.993 63.999c54 81 82.998 158 97.998 258l11.001 78.003h1912l11.001-78.003c15-100 43.998-177 97.998-258l42.993-63.999c373.98-328.08 837.78-103.8 902.01 0l34.995 48.999c65 90 114 230 115 331 1 31 6.002 38.01 52.002 65.01 29 17 67.005 48.993 85.005 72.993 60 79 63.996 111 60.996 483l-3.0029 334-285 567.99c-304 606-314 623-410 670-44 22-52.002 22.005-502 25.005l-457 3.003-3.003 387c-3 369-3.9941 103.99-23.994 147.99-31 66-78.002 114-142 146l-56.997 28.008zm223.18-195.85c266.85-0.4606 523.08-1.6096 732.73-3.4424 294.94-2.5784 497.69-6.5002 508.1-11.704 15-8 31.994-26.001 38.994-41.001 9-20 11.997-67.995 11.997-1100v-1360l-747 0.9961h-747.99l-33.999 71.997c-47 100-158.01 210.01-261.01 261.01-177 86-363 86-540 0-103-51-214.01-161.01-261.01-261.01l-33.999-71.997h-177c-117-1-186 3.001-203 11.001-38 17-55.005 57.998-55.005 128v60c-9.7089 280.15 0 600 0 600v963c1 1032-0.9942 709 51.006 738 20.53 11.652 916.63 16.528 1717.2 15.146zm1491.8-716.15h433.99c425 0 434-0.01 460-21.006 15-12 45.002-56.99 67.002-99.99l38.994-78.999h-358.99c-387 0-401-2.0059-427-51.006-19-37-21.007-852.99-2.0068-893.99 25-56 17.008-55.005 658.01-55.005h590v-263.99c0-252-1.0059-265.01-21.006-287.01-11-13-21.99-18.993-24.99-12.993-24 56-91.001 148-146 199-184 174-446 211.99-678 98.994-103-51-214.01-161.01-261.01-261.01l-33.999-71.997h-147l-147.99-0.9961v900zm399.99-400h700l300-600h-1e3v300zm-2698.7-1203.9c18.141 1.0313 37.953 0.8975 60.703-0.1025 61-3 92.002-10.999 142-33.999 91-42 148.99-99.99 193.99-189.99 35-72 37.002-81.002 37.002-172s-2.0019-100-37.002-172c-45-91-103-147-196-191-61-29-75.997-32.007-162-32.007s-101 3.0068-162 32.007c-93 44-151 100-196 191-35 72-37.002 80.991-37.002 170.99 0 87 2.9922 102.01 31.992 163.01 40 85 97.002 146.99 172 185.99 58.5 31.5 97.878 45.012 152.3 48.105zm3120 0c18.141 1.0313 37.953 0.8975 60.703-0.1025 61-3 92.002-10.999 142-33.999 91-42 148.99-99.99 193.99-189.99 35-72 37.002-81.002 37.002-172s-2.0019-100-37.002-172c-45-91-103-147-196-191-61-29-75.997-32.007-162-32.007s-101 3.0068-162 32.007c-93 44-151 100-196 191-35 72-37.002 80.991-37.002 170.99 0 87 2.9922 102.01 31.992 163.01 40 85 97.002 146.99 172 185.99 58.5 31.5 97.878 45.012 152.3 48.105z"/>
  <path d="m127.86 4670.4c-48.166-37-46.728-143 2.8755-174 26.599-17 943.9-17 970.5 0 20.848 13 39.539 55 39.539 88s-18.691 75-39.539 88c-28.756 18-949.65 16-973.37-2z" style="stroke-width:.84787"/>
  <path d="m107.59 3708.2c-48.166-37-46.728-143 2.8755-174 26.599-17 943.9-17 970.5 0 20.848 13 39.539 55 39.539 88s-18.691 75-39.539 88c-28.756 18-949.65 16-973.37-2z" style="stroke-width:.84787"/>
  <path d="m490.9 4169.6c-43.561-37-42.26-143 2.6006-174 12.353-9 96.224-12 308.83-12 313.38 0 318.58 1 335.48 51 17.554 52 5.2013 115-26.657 137-25.356 18-598.8 16-620.25-2z" style="stroke-width:.80632"/>
  <path d="m494.07 3254.8c-43.561-37-42.26-143 2.6006-174 12.353-9 96.224-12 308.83-12 313.38 0 318.58 1 335.48 51 17.554 52 5.2013 115-26.656 137-25.356 18-598.8 16-620.25-2z" style="stroke-width:.80632"/>
 </g>
</svg>
