<?xml version="1.0" encoding="UTF-8" standalone="no"?>
<svg
   version="1.0"
   width="650pt"
   height="400pt"
   viewBox="0 0 650 400"
   preserveAspectRatio="xMidYMid"
   id="svg6"
   sodipodi:docname="buscar-envio.svg"
   inkscape:version="1.4 (86a8ad7, 2024-10-11)"
   xmlns:inkscape="http://www.inkscape.org/namespaces/inkscape"
   xmlns:sodipodi="http://sodipodi.sourceforge.net/DTD/sodipodi-0.dtd"
   xmlns="http://www.w3.org/2000/svg"
   xmlns:svg="http://www.w3.org/2000/svg">
  <defs
     id="defs6" />
  <sodipodi:namedview
     id="namedview6"
     pagecolor="#505050"
     bordercolor="#eeeeee"
     borderopacity="1"
     inkscape:showpageshadow="0"
     inkscape:pageopacity="0"
     inkscape:pagecheckerboard="0"
     inkscape:deskcolor="#505050"
     inkscape:document-units="pt"
     inkscape:zoom="0.78928032"
     inkscape:cx="322.44564"
     inkscape:cy="300.27354"
     inkscape:window-width="1920"
     inkscape:window-height="991"
     inkscape:window-x="-9"
     inkscape:window-y="-9"
     inkscape:window-maximized="1"
     inkscape:current-layer="g6" />
  <g
     transform="matrix(0.1,0,0,-0.1,0,512)"
     fill="#000000"
     stroke="none"
     id="g6">
    <path
       id="path1"
       d="m 3015.7953,4929.1973 c -1409.9999,2 -1492.997,2 -1541.997,-15 -100,-35 -170.9932,-114.9912 -192.9932,-215.9912 -8,-36 -9.998,-159.0108 -7.998,-1111.0108 l 2.9883,-1344.9902 28.0078,-57.0117 c 32,-64 80.0009,-110.9873 146.0009,-141.9873 41,-18 68.002,-21.0088 232.002,-24.0088 l 184.9951,-3.9991 11.001,-75.996 c 15,-100 43.998,-178.003 97.998,-258.003 l 42.9932,-63.999 c 475.5979,-398.6372 884.0224,-21.9232 904.0136,0 l 42.9932,63.999 c 54,81 82.998,158.003 97.998,258.003 l 11.001,78.0029 h 956.001 956.001 l 11.001,-78.0029 c 15,-100 43.998,-177.003 97.998,-258.003 l 42.9932,-63.999 c 373.9822,-328.0762 837.7824,-103.797 902.0068,0 l 34.9951,48.999 c 65,90 114.0049,229.9961 115.0049,330.9961 1,31 6.002,38.0098 52.002,65.0098 29,17 67.0048,48.9931 85.0048,72.9931 60,79 63.9961,111.003 60.9961,483.003 l -3.0029,333.999 -285,567.9932 c -304,606 -313.9951,623.0048 -409.9951,670.0048 -44,22 -52.002,22.0049 -502.002,25.0049 l -457.0019,3.003 -3.003,386.997 c -3,369 -3.9941,103.9932 -23.9941,147.9932 -31,66 -78.0019,114.001 -142.0019,146.001 l -56.9971,28.0078 z m 223.1836,-195.8496 c 266.8497,-0.4606 523.0792,-1.6096 732.7295,-3.4424 294.9403,-2.5784 497.688,-6.5002 508.0957,-11.7041 15,-8 31.9941,-26.001 38.9941,-41.001 9,-20 11.9971,-67.9951 11.9971,-1099.9951 V 2217.2002 l -746.9971,0.9961 h -747.9931 l -33.999,71.9971 c -47,100 -158.0059,210.0058 -261.0059,261.0058 -177,86 -363,86 -540,0 -103,-51 -214.0058,-161.0058 -261.0058,-261.0058 l -33.999,-71.9971 h -176.9971 c -117,-1 -185.9981,3.001 -202.9981,11.001 -38,17 -55.0048,57.998 -55.0048,127.998 v 60 c -9.7089,280.1462 0,600 0,600 v 963.0029 c 1,1032 -0.9942,709.003 51.0058,738.003 20.5296,11.6519 916.6287,16.5281 1717.1777,15.1465 z m 1491.8262,-716.1475 h 433.9892 c 425,0 434.0049,-0.01 460.0049,-21.0059 15,-12 45.002,-56.9902 67.002,-99.9902 l 38.9941,-78.999 h -358.9892 c -387,0 -401.002,-2.0059 -427.002,-51.0059 -19,-37 -21.0068,-852.9941 -2.0068,-893.9941 25,-56 17.0078,-55.0049 658.0078,-55.0049 h 589.9951 v -263.9941 c 0,-252 -1.0059,-265.0069 -21.0059,-287.0069 -11,-13 -21.9902,-18.9931 -24.9902,-12.9931 -24,56 -91.001,147.999 -146.001,198.999 -184,174 -446.0029,211.9941 -678.0029,98.9941 -103,-51 -214.0059,-161.0058 -261.0059,-261.0058 l -33.999,-71.9971 h -146.9971 l -147.9931,-0.9961 v 900 z m 399.9902,-400.0049 h 350.0098 349.9951 l 150,-300 150,-300 h -499.9951 -500.0098 v 300 z M 2432.099,2413.2988 c 18.1407,1.0313 37.9532,0.8975 60.7032,-0.1025 61,-3 92.0019,-10.999 142.0019,-33.999 91,-42 148.9893,-99.9903 193.9893,-189.9903 35,-72 37.0019,-81.0019 37.0019,-172.0019 0,-91 -2.0019,-100.002 -37.0019,-172.002 -45,-91 -102.9961,-147.001 -195.9961,-191.001 -61,-29 -75.9971,-32.0068 -161.9971,-32.0068 -86,0 -100.9971,3.0068 -161.9971,32.0068 -92.9999,44 -150.996,100.001 -195.996,191.001 -35,72 -37.002,80.9912 -37.002,170.9912 0,87 2.9922,102.0079 31.9922,163.0079 40,85 97.002,146.9912 172.0019,185.9912 58.5,31.5 97.878,45.0117 152.2998,48.1054 z m 3120,0 c 18.1407,1.0313 37.9532,0.8975 60.7032,-0.1025 61,-3 92.0019,-10.999 142.0019,-33.999 91,-42 148.9893,-99.9903 193.9893,-189.9903 35,-72 37.0019,-81.0019 37.0019,-172.0019 0,-91 -2.0019,-100.002 -37.0019,-172.002 -45,-91 -102.9961,-147.001 -195.9961,-191.001 -61,-29 -75.9971,-32.0068 -161.9971,-32.0068 -86,0 -100.9971,3.0068 -161.9971,32.0068 -93,44 -150.9961,100.001 -195.9961,191.001 -35,72 -37.0019,80.9912 -37.0019,170.9912 0,87 2.9922,102.0079 31.9922,163.0079 40,85 97.0019,146.9912 172.0019,185.9912 58.5,31.5 97.878,45.0117 152.2998,48.1054 z"
       sodipodi:nodetypes="cccccccccccccccccccccccccccccccccccccssccsccccccccccsccccscscccsccscscccccccccccccccccccscccsccsccsccsscccsccsccsccs" />
    <path
       d="m 127.86123,4670.3918 c -48.165502,-37 -46.727702,-143 2.8755,-174 26.5989,-17 943.89957,-17 970.49847,0 20.8477,13 39.5388,55 39.5388,88 0,33 -18.6911,75 -39.5388,88 -28.7555,18 -949.65067,16 -973.37397,-2 z"
       id="path3"
       style="stroke-width:0.847873" />
    <path
       d="m 107.58553,3708.2099 c -48.165502,-37 -46.727702,-143 2.8755,-174 26.5989,-17 943.89957,-17 970.49837,0 20.8478,13 39.5389,55 39.5389,88 0,33 -18.6911,75 -39.5389,88 -28.7555,18 -949.65057,16 -973.37387,-2 z"
       id="path3-0"
       style="stroke-width:0.847873" />
    <path
       d="m 490.89613,4169.6044 c -43.56069,-37 -42.26037,-143 2.60064,-174 12.35303,-9 96.22362,-12 308.82577,-12 313.37696,0 318.57816,1 335.48236,51 17.5543,52 5.2013,115 -26.6566,137 -25.3562,18 -598.7969,16 -620.25217,-2 z"
       id="path4"
       style="stroke-width:0.806325" />
    <path
       d="m 494.0718,3254.7978 c -43.56069,-37 -42.26037,-143 2.60064,-174 12.35303,-9 96.22362,-12 308.82577,-12 313.37689,0 318.57819,1 335.48229,51 17.5544,52 5.2013,115 -26.6565,137 -25.3562,18 -598.79693,16 -620.2522,-2 z"
       id="path4-9"
       style="stroke-width:0.806325" />
  </g>
</svg>
