<?xml version="1.0" standalone="no"?>
<!DOCTYPE svg PUBLIC "-//W3C//DTD SVG 20010904//EN"
 "http://www.w3.org/TR/2001/REC-SVG-20010904/DTD/svg10.dtd">
<svg version="1.0" xmlns="http://www.w3.org/2000/svg"
 width="512.000000pt" height="512.000000pt" viewBox="0 0 512.000000 512.000000"
 preserveAspectRatio="xMidYMid meet">

<g transform="translate(0.000000,512.000000) scale(0.100000,-0.100000)"
fill="#000000" stroke="none">
<path d="M1410 4828 c-50 -34 -80 -98 -80 -174 l0 -62 -287 -4 c-279 -4 -291
-5 -368 -31 -149 -50 -273 -154 -341 -288 -55 -111 -64 -165 -64 -416 l0 -223
2290 0 2290 0 0 223 c0 253 -9 309 -67 421 -49 93 -156 202 -244 245 -120 59
-148 63 -460 68 l-286 5 -5 73 c-6 84 -27 128 -79 163 -28 20 -44 23 -90 20
-103 -7 -149 -64 -149 -187 l0 -71 -910 0 -910 0 0 71 c0 123 -46 180 -149
187 -46 3 -62 0 -91 -20z m240 -477 c0 -230 -1 -239 -22 -271 -33 -48 -70 -72
-121 -77 -56 -7 -118 25 -150 77 -21 33 -22 48 -25 273 l-3 237 160 0 161 0 0
-239z m2138 2 c-3 -230 -4 -239 -27 -276 -31 -51 -91 -81 -149 -74 -50 5 -87
29 -119 77 -22 32 -23 41 -23 271 l0 239 161 0 160 0 -3 -237z"/>
<path d="M270 2125 c0 -815 3 -1201 11 -1237 34 -164 159 -324 312 -397 45
-21 106 -44 135 -50 36 -8 352 -11 988 -11 l936 0 -76 82 c-180 193 -304 434
-363 701 -25 117 -25 437 0 557 129 606 589 1047 1197 1146 128 21 398 14 521
-15 346 -79 651 -279 858 -559 l61 -84 0 526 0 526 -2290 0 -2290 0 0 -1185z"/>
<path d="M3463 2710 c-258 -36 -519 -167 -704 -352 -98 -98 -162 -189 -229
-323 -275 -550 -97 -1217 416 -1561 203 -135 432 -204 684 -204 756 0 1332
684 1204 1430 -44 256 -158 475 -344 660 -175 175 -374 283 -620 336 -87 19
-318 27 -407 14z m206 -530 c46 -13 99 -65 111 -110 5 -19 10 -122 10 -227 l0
-193 209 0 c199 0 209 -1 241 -22 48 -33 72 -70 77 -120 7 -58 -23 -118 -74
-149 -37 -24 -43 -24 -338 -27 -296 -3 -301 -2 -345 20 -25 13 -55 38 -67 57
-23 33 -23 39 -23 351 0 312 0 318 23 351 22 33 95 79 127 79 8 0 31 -4 49
-10z"/>
</g>
</svg>
