<svg width="700pt" height="525pt" preserveAspectRatio="xMidYMid" version="1.0" viewBox="0 0 700 525" xmlns="http://www.w3.org/2000/svg">
 <g transform="matrix(.09664 0 0 -.1 -11.24 500.74)">
  <path d="m4590.5 4890.9c-12 0-550-256-1196-569-646-312-1188.9-582.53-1196.9-592.53-2.7162-18.327-3.5843-279.95-3.8305-999.25-0.014-41.607 1.1563-98.787 20.156-110.45 19-11.666 87.754-13.902 107.97 2.3755 20.217 16.278 22.671 62.748 22.726 104.51 0.5866 439.62 1.5003 845.34 2.8884 845.34 2 0 376-180 832-400 486-235 839-399.99 856-399.99 15 0 37.003 8.9951 48.003 19.995 25 25 25.988 80.993 2.9883 102.99-10 8-224.99 115.01-477.99 237.01-807 389-857 412.99-1012 489.99l-151.99 75 366.99 177.01c202 97 372.01 177 377.01 177 6 0 514-244.01 1130-542.01l1120-541.99 3.0029-465c2-460 1.9942-464 23.994-487 12-13 31.996-22.998 45.996-22.998 28 0 606.01 275.99 624.01 297.99 10 11 14.003 129 18.003 485l4.9951 470.01 338.99 162.99c187 90 341.01 164 343.01 164s3.0029-575 3.0029-1278v-1278l-1076-518.99c-592-286-1080-520.99-1085-522.99s-8.9941 534-8.9941 1275v1279l237 113.99c131 63 251.01 122 268.01 130 42 21 59.993 62.002 42.993 97.002-7 15-26.001 33.986-41.001 40.986-27 13-37.995 9.0019-230-82.998-111-54-237-112.99-280-132.99l-76.992-36.006-93.003 43.008c-50 24-104 47.994-119 53.994-39 16-78.999-0.9941-93.999-38.994-21-51-1.9922-72.004 118.01-134l107.99-55.005v-1278c0-703-3.998-1277-7.998-1275-5 1-493 236.99-1085 522.99l-1077 520v859.19s0.2749 77.484-14.254 106.37c-14.528 28.882-108.78 27.86-121.83 0-13.052-27.86-13.007-74.915-12.968-119.43 0.6501-731.88 3.3379-923.82 17.041-939.13 19-23 2355-1152 2383-1152 27 0 2362 1129 2381 1152 17 19 18.003 100.99 18.003 1408s-1.0069 1389-17.007 1408c-23 26-2357 1152-2386 1151zm12.993-165c8-3 493.01-235 1077-517 583-282 1060-514 1058-515-2-2-141-71.007-310-152.01l-306.01-149-156.99 78.003c-86 42-568.01 275-1069 517-502 241-912.99 442-912.99 445 0 12 605 298 620 293zm-802-384.01c8 0 493.01-230.99 1078-511.99 585-282 1064-515 1064-518 0-5-421.01-210-432.01-210-5 0-504.99 239.99-1721 827.99l-428.01 207.01 33.003 15c18 8 114.01 53.997 212.01 102 99 49 185.99 87.993 193.99 87.993zm2190-1181c9 1 12.012-82.997 12.012-387v-389l-199-95.991c-110-54-202-97.002-205-97.002s-6.0059 175-6.0059 390v389l193.01 94.995c105 52 197.99 94.995 204.99 94.995z"/>
  <path d="m2534.5 1805.9c-24-30-27-62-8-87 17-24 687-347 718-347 62 0 96 78 53 120-30 30-681 340-714 340-19 0-35-9-49-26z"/>
  <path d="m2553.5 1468.9c-35-18-48-61-30-95 20-35 357-205 409-205 63-2 95 77 49 120-23 22-344 179-382 188-12 3-32-1-46-8z"/>
 </g>
 <g transform="matrix(1.265 0 0 1.265 219.22 -55.568)">
  <rect x="-163.77" y="240.38" width="220" height="32" ry="16" style="paint-order:normal;stroke-width:.97273"/>
  <rect x="-68.581" y="147.53" width="32" height="220" ry="16" style="stroke-width:.97273"/>
 </g>
</svg>
