<?xml version="1.0" encoding="UTF-8"?>
<!DOCTYPE svg PUBLIC "-//W3C//DTD SVG 1.1//EN" "http://www.w3.org/Graphics/SVG/1.1/DTD/svg11.dtd">
<svg xmlns="http://www.w3.org/2000/svg" version="1.1" width="512px" height="512px" style="shape-rendering:geometricPrecision; text-rendering:geometricPrecision; image-rendering:optimizeQuality; fill-rule:evenodd; clip-rule:evenodd" xmlns:xlink="http://www.w3.org/1999/xlink">
<g><path style="opacity:0.984" fill="#fdd000" d="M 276.5,46.5 C 194.902,164.034 112.569,281.034 29.5,397.5C 28.626,386.036 31.126,375.369 37,365.5C 95.2526,265.33 153.253,164.997 211,64.5C 228.615,42.8063 250.448,36.8063 276.5,46.5 Z"/></g>
<g><path style="opacity:0.998" fill="#fccb02" d="M 276.5,46.5 C 284.159,48.9748 290.659,53.3081 296,59.5C 301.344,66.8574 306.178,74.5241 310.5,82.5C 296.5,101.5 282.5,120.5 268.5,139.5C 252.34,135.041 238.506,138.708 227,150.5C 223.91,154.682 221.91,159.349 221,164.5C 220.836,172.199 221.336,179.865 222.5,187.5C 223.098,192.813 223.431,198.146 223.5,203.5C 173.912,274.935 124.079,346.269 74,417.5C 68.3032,425.351 62.4699,433.018 56.5,440.5C 39.8591,431.15 30.8591,416.816 29.5,397.5C 112.569,281.034 194.902,164.034 276.5,46.5 Z"/></g>
<g><path style="opacity:0.995" fill="#fbc405" d="M 310.5,82.5 C 318.087,95.338 325.42,108.338 332.5,121.5C 318.865,139.413 305.698,157.747 293,176.5C 290.841,178.956 290.008,178.29 290.5,174.5C 291.875,163.62 288.542,154.62 280.5,147.5C 277.154,143.829 273.154,141.162 268.5,139.5C 282.5,120.5 296.5,101.5 310.5,82.5 Z"/></g>
<g><path style="opacity:0.997" fill="#f9bd08" d="M 332.5,121.5 C 340.197,133.886 347.53,146.553 354.5,159.5C 330.53,192.986 306.696,226.653 283,260.5C 282.505,258.527 282.338,256.527 282.5,254.5C 283.167,244.5 283.833,234.5 284.5,224.5C 285.949,215.692 286.949,206.692 287.5,197.5C 288.312,189.676 289.312,182.009 290.5,174.5C 290.008,178.29 290.841,178.956 293,176.5C 305.698,157.747 318.865,139.413 332.5,121.5 Z"/></g>
<g><path style="opacity:1" fill="#3b3e50" d="M 268.5,139.5 C 273.154,141.162 277.154,143.829 280.5,147.5C 261.167,160.833 241.833,174.167 222.5,187.5C 221.336,179.865 220.836,172.199 221,164.5C 221.91,159.349 223.91,154.682 227,150.5C 238.506,138.708 252.34,135.041 268.5,139.5 Z"/></g>
<g><path style="opacity:0.999" fill="#f9b709" d="M 354.5,159.5 C 362.404,172.3 370.071,185.3 377.5,198.5C 376.504,198.414 375.671,198.748 375,199.5C 343.413,245.008 311.579,290.342 279.5,335.5C 278.675,336.386 277.675,336.719 276.5,336.5C 273.386,334.609 270.052,333.276 266.5,332.5C 243.335,327.338 227.502,336.005 219,358.5C 218.071,365.418 218.571,372.085 220.5,378.5C 222.705,386.916 227.371,393.583 234.5,398.5C 223.423,414.979 212.09,431.312 200.5,447.5C 184.167,447.5 167.833,447.5 151.5,447.5C 182.167,403.833 212.833,360.167 243.5,316.5C 256.067,321.921 266.567,319.255 275,308.5C 276.811,304.012 277.811,299.346 278,294.5C 279.498,281.189 280.664,267.856 281.5,254.5C 281.833,254.5 282.167,254.5 282.5,254.5C 282.338,256.527 282.505,258.527 283,260.5C 306.696,226.653 330.53,192.986 354.5,159.5 Z"/></g>
<g><path style="opacity:1" fill="#323646" d="M 280.5,147.5 C 288.542,154.62 291.875,163.62 290.5,174.5C 289.312,182.009 288.312,189.676 287.5,197.5C 267.5,210.833 247.5,224.167 227.5,237.5C 226.419,225.999 225.086,214.665 223.5,203.5C 223.431,198.146 223.098,192.813 222.5,187.5C 241.833,174.167 261.167,160.833 280.5,147.5 Z"/></g>
<g><path style="opacity:0.999" fill="#f8b20b" d="M 377.5,198.5 C 385.02,210.872 392.02,223.539 398.5,236.5C 349.167,306.833 299.833,377.167 250.5,447.5C 233.833,447.5 217.167,447.5 200.5,447.5C 212.09,431.312 223.423,414.979 234.5,398.5C 235.167,398.833 235.833,399.167 236.5,399.5C 239.614,401.391 242.948,402.724 246.5,403.5C 274.461,406.719 289.795,394.219 292.5,366C 292.497,363.31 292.164,360.81 291.5,358.5C 290.724,354.948 289.391,351.614 287.5,348.5C 284.514,343.848 280.847,339.848 276.5,336.5C 277.675,336.719 278.675,336.386 279.5,335.5C 311.579,290.342 343.413,245.008 375,199.5C 375.671,198.748 376.504,198.414 377.5,198.5 Z"/></g>
<g><path style="opacity:0.999" fill="#fbc405" d="M 223.5,203.5 C 225.086,214.665 226.419,225.999 227.5,237.5C 228.365,245.816 229.032,254.149 229.5,262.5C 229.5,262.833 229.5,263.167 229.5,263.5C 229.657,264.873 229.49,266.207 229,267.5C 186.199,327.121 144.033,387.121 102.5,447.5C 92.4944,447.666 82.4944,447.5 72.5,447C 66.6359,445.885 61.3025,443.718 56.5,440.5C 62.4699,433.018 68.3032,425.351 74,417.5C 124.079,346.269 173.912,274.935 223.5,203.5 Z"/></g>
<g><path style="opacity:1" fill="#2a2e3b" d="M 287.5,197.5 C 286.949,206.692 285.949,215.692 284.5,224.5C 266.167,237.167 247.833,249.833 229.5,262.5C 229.032,254.149 228.365,245.816 227.5,237.5C 247.5,224.167 267.5,210.833 287.5,197.5 Z"/></g>
<g><path style="opacity:1" fill="#242934" d="M 284.5,224.5 C 283.833,234.5 283.167,244.5 282.5,254.5C 282.167,254.5 281.833,254.5 281.5,254.5C 281.565,254.062 281.399,253.728 281,253.5C 265.208,265.138 249.042,276.138 232.5,286.5C 231.688,278.676 230.688,271.009 229.5,263.5C 229.5,263.167 229.5,262.833 229.5,262.5C 247.833,249.833 266.167,237.167 284.5,224.5 Z"/></g>
<g><path style="opacity:0.998" fill="#f8ac0d" d="M 398.5,236.5 C 407.921,251.002 416.588,266.002 424.5,281.5C 385.5,336.833 346.5,392.167 307.5,447.5C 288.5,447.5 269.5,447.5 250.5,447.5C 299.833,377.167 349.167,306.833 398.5,236.5 Z"/></g>
<g><path style="opacity:1" fill="#1d232b" d="M 281.5,254.5 C 280.664,267.856 279.498,281.189 278,294.5C 277.811,299.346 276.811,304.012 275,308.5C 266.567,319.255 256.067,321.921 243.5,316.5C 234.742,308.577 231.075,298.577 232.5,286.5C 249.042,276.138 265.208,265.138 281,253.5C 281.399,253.728 281.565,254.062 281.5,254.5 Z"/></g>
<g><path style="opacity:0.998" fill="#f7a510" d="M 424.5,281.5 C 432.863,294.549 440.863,307.882 448.5,321.5C 447.504,321.586 446.671,321.252 446,320.5C 416.255,362.731 386.755,405.065 357.5,447.5C 340.833,447.5 324.167,447.5 307.5,447.5C 346.5,392.167 385.5,336.833 424.5,281.5 Z"/></g>
<g><path style="opacity:1" fill="#fabe07" d="M 229.5,263.5 C 230.688,271.009 231.688,278.676 232.5,286.5C 231.075,298.577 234.742,308.577 243.5,316.5C 212.833,360.167 182.167,403.833 151.5,447.5C 135.167,447.5 118.833,447.5 102.5,447.5C 144.033,387.121 186.199,327.121 229,267.5C 229.49,266.207 229.657,264.873 229.5,263.5 Z"/></g>
<g><path style="opacity:0.999" fill="#f69f12" d="M 448.5,321.5 C 455.753,333.671 462.753,346.004 469.5,358.5C 448.144,387.866 427.144,417.532 406.5,447.5C 390.167,447.5 373.833,447.5 357.5,447.5C 386.755,405.065 416.255,362.731 446,320.5C 446.671,321.252 447.504,321.586 448.5,321.5 Z"/></g>
<g><path style="opacity:1" fill="#3a3c4d" d="M 266.5,332.5 C 251.5,348.167 236.167,363.5 220.5,378.5C 218.571,372.085 218.071,365.418 219,358.5C 227.502,336.005 243.335,327.338 266.5,332.5 Z"/></g>
<g><path style="opacity:1" fill="#2c313e" d="M 266.5,332.5 C 270.052,333.276 273.386,334.609 276.5,336.5C 280.847,339.848 284.514,343.848 287.5,348.5C 270.252,364.246 253.419,380.579 237,397.5C 236.536,398.094 236.369,398.761 236.5,399.5C 235.833,399.167 235.167,398.833 234.5,398.5C 227.371,393.583 222.705,386.916 220.5,378.5C 236.167,363.5 251.5,348.167 266.5,332.5 Z"/></g>
<g><path style="opacity:1" fill="#252a34" d="M 287.5,348.5 C 289.391,351.614 290.724,354.948 291.5,358.5C 276.167,373.167 261.167,388.167 246.5,403.5C 242.948,402.724 239.614,401.391 236.5,399.5C 236.369,398.761 236.536,398.094 237,397.5C 253.419,380.579 270.252,364.246 287.5,348.5 Z"/></g>
<g><path style="opacity:0.987" fill="#f59a14" d="M 469.5,358.5 C 484.495,380.248 485.328,402.581 472,425.5C 463.475,436.675 452.308,443.842 438.5,447C 427.839,447.5 417.172,447.667 406.5,447.5C 427.144,417.532 448.144,387.866 469.5,358.5 Z"/></g>
<g><path style="opacity:1" fill="#1f242c" d="M 291.5,358.5 C 292.164,360.81 292.497,363.31 292.5,366C 289.795,394.219 274.461,406.719 246.5,403.5C 261.167,388.167 276.167,373.167 291.5,358.5 Z"/></g>
</svg>
