<?xml version="1.0" standalone="no"?>
<!DOCTYPE svg PUBLIC "-//W3C//DTD SVG 20010904//EN"
 "http://www.w3.org/TR/2001/REC-SVG-20010904/DTD/svg10.dtd">
<svg version="1.0" xmlns="http://www.w3.org/2000/svg"
 width="512.000000pt" height="512.000000pt" viewBox="0 0 512.000000 512.000000"
 preserveAspectRatio="xMidYMid meet">

<g transform="translate(0.000000,512.000000) scale(0.100000,-0.100000)"
fill="#000000" stroke="none">
<path d="M2810 4742 c-67 -33 -70 -48 -70 -405 0 -348 3 -366 58 -404 25 -17
62 -18 460 -21 l432 -3 0 -74 0 -75 -664 0 -664 0 -56 84 c-347 522 -1043 707
-1604 426 -345 -173 -586 -481 -675 -865 -28 -124 -30 -381 -4 -505 53 -247
158 -448 327 -624 140 -146 312 -259 488 -321 l67 -23 3 -181 2 -181 -37 0
c-62 0 -112 -19 -155 -58 -79 -71 -78 -62 -78 -547 0 -480 0 -474 71 -542 72
-68 -91 -63 2161 -63 1528 0 2051 3 2086 12 59 15 132 85 150 144 16 55 17
840 1 899 -22 82 -128 155 -223 155 l-36 0 0 924 c0 893 -1 926 -20 987 -37
118 -137 219 -257 258 -58 19 -86 21 -348 21 l-285 0 0 75 0 75 418 0 c459 0
460 0 506 63 20 27 21 43 24 355 2 302 1 330 -16 361 -10 19 -34 43 -53 53
-32 17 -83 18 -1004 18 -903 0 -972 -1 -1005 -18z m1828 -404 l-3 -173 -822
-3 -823 -2 0 175 0 175 825 0 825 0 -2 -172z m-3123 -218 c290 -79 520 -268
650 -535 69 -140 96 -246 103 -397 13 -302 -93 -566 -311 -775 -133 -127 -284
-210 -464 -255 -118 -29 -332 -31 -447 -5 -532 125 -871 627 -780 1158 38 219
134 399 297 556 45 43 104 94 130 112 105 72 288 143 422 164 17 3 95 4 175 2
111 -2 164 -8 225 -25z m3001 -626 c19 -9 44 -31 57 -48 l22 -31 3 -922 2
-923 -1720 0 -1720 0 0 155 0 155 83 0 c566 0 1054 355 1221 888 69 221 73
483 11 715 l-7 27 1007 0 c908 0 1010 -2 1041 -16z m354 -2529 l0 -355 -1990
0 -1990 0 0 355 0 355 1990 0 1990 0 0 -355z"/>
<path d="M1215 3920 c-48 -19 -70 -58 -75 -132 l-5 -71 -60 -36 c-111 -67
-170 -176 -169 -311 0 -95 32 -169 104 -240 60 -61 132 -96 222 -109 80 -11
103 -23 123 -61 25 -49 19 -88 -19 -126 -61 -61 -145 -41 -179 44 -42 106
-169 126 -228 36 -27 -41 -24 -89 10 -159 31 -66 110 -147 166 -171 l35 -14 0
-69 c0 -60 4 -74 26 -100 31 -37 81 -53 127 -40 63 17 97 76 97 166 0 40 3 44
41 63 59 31 121 97 155 166 26 52 29 70 29 149 0 82 -3 97 -33 157 -57 116
-156 185 -292 203 -66 9 -101 28 -125 67 -23 39 -13 86 25 123 53 51 143 31
171 -38 17 -44 56 -85 94 -97 73 -24 155 40 155 120 0 83 -93 211 -185 254
-33 16 -35 19 -35 69 -1 119 -85 195 -175 157z"/>
<path d="M2922 3326 l-37 -34 -3 -233 c-3 -255 0 -275 52 -312 l31 -22 690 0
c643 0 693 1 718 18 60 39 62 50 62 302 0 251 -2 261 -58 295 -31 19 -56 20
-725 20 l-692 0 -38 -34z m1266 -283 l-3 -68 -527 -3 -528 -2 0 70 0 70 530 0
531 0 -3 -67z"/>
</g>
</svg>
