<?xml version="1.0" standalone="no"?>
<!DOCTYPE svg PUBLIC "-//W3C//DTD SVG 20010904//EN"
 "http://www.w3.org/TR/2001/REC-SVG-20010904/DTD/svg10.dtd">
<svg version="1.0" xmlns="http://www.w3.org/2000/svg"
 width="512.000000pt" height="512.000000pt" viewBox="0 0 512.000000 512.000000"
 preserveAspectRatio="xMidYMid meet">

<g transform="translate(0.000000,512.000000) scale(0.100000,-0.100000)"
fill="#000000" stroke="none">
<path d="M974 5101 c-17 -11 -36 -34 -43 -52 -15 -44 -16 -4916 0 -4972 11
-42 56 -77 99 -77 40 0 72 27 192 159 l112 123 50 -53 c28 -30 85 -91 127
-136 77 -84 107 -101 156 -88 29 7 58 35 194 184 l85 93 60 -63 c208 -223 211
-226 271 -214 25 4 59 35 155 138 67 73 125 132 129 132 4 0 62 -59 129 -132
163 -177 183 -181 301 -57 35 38 91 97 124 132 l61 64 118 -130 c184 -202 187
-202 371 0 l119 130 55 -59 c199 -210 201 -212 236 -219 49 -9 96 20 113 70
10 30 12 547 10 2506 l-3 2469 -21 28 c-28 37 -84 52 -123 32 -16 -8 -81 -72
-146 -142 l-118 -128 -23 22 c-12 11 -67 70 -121 130 -156 173 -171 173 -346
-21 -66 -71 -122 -130 -125 -129 -4 0 -56 56 -117 124 -125 140 -155 161 -208
151 -30 -6 -56 -29 -158 -139 -67 -73 -124 -132 -128 -132 -4 0 -62 59 -129
132 -98 106 -129 133 -156 139 -60 11 -59 12 -270 -215 l-59 -63 -86 94 c-137
150 -165 176 -194 183 -49 13 -79 -4 -156 -88 -42 -45 -99 -106 -126 -135
l-51 -54 -118 129 c-65 70 -128 133 -140 140 -31 18 -67 16 -102 -6z m792
-381 c175 -193 183 -193 361 -2 64 70 120 128 124 130 3 1 57 -53 119 -120
109 -118 157 -158 190 -158 33 0 81 40 190 158 62 67 116 121 119 120 4 -2 61
-62 128 -134 175 -188 181 -188 358 6 64 72 120 130 124 130 3 0 58 -57 120
-126 63 -69 128 -132 144 -140 53 -28 88 -12 166 74 l71 77 0 -2173 0 -2174
-77 81 c-116 120 -130 117 -299 -68 -65 -72 -121 -131 -124 -131 -3 0 -57 57
-119 126 -183 200 -187 201 -363 11 -67 -73 -125 -133 -129 -135 -3 -1 -59 56
-125 127 -65 72 -130 135 -145 142 -49 20 -85 3 -162 -79 -40 -42 -97 -103
-127 -135 l-56 -59 -127 135 c-76 81 -137 137 -153 141 -52 14 -87 -10 -209
-144 -65 -72 -122 -129 -126 -128 -4 2 -60 61 -125 131 -167 183 -182 186
-296 65 l-78 -81 0 2174 0 2174 71 -77 c78 -86 113 -102 166 -74 16 8 81 71
144 140 62 69 117 126 120 126 4 0 60 -58 125 -130z"/>
<path d="M2502 4154 c-32 -22 -52 -67 -52 -116 0 -41 -2 -45 -35 -57 -57 -20
-138 -102 -171 -173 -40 -87 -41 -196 -2 -280 56 -122 152 -190 290 -208 117
-15 158 -52 158 -145 0 -125 -174 -172 -239 -63 -11 16 -22 50 -26 75 -16 107
-135 139 -193 53 -21 -30 -23 -43 -18 -89 14 -118 107 -248 201 -282 32 -12
35 -17 35 -51 0 -119 102 -180 181 -110 27 24 33 37 37 86 4 56 5 57 51 81 63
32 125 98 158 170 39 84 39 195 1 277 -56 122 -154 192 -290 207 -114 13 -158
53 -158 144 0 70 58 127 130 127 67 0 115 -44 131 -119 15 -72 23 -87 59 -106
89 -46 169 20 155 130 -14 113 -109 243 -201 277 -31 11 -34 16 -34 50 0 50
-22 101 -51 122 -30 20 -88 21 -117 0z"/>
<path d="M2045 2078 c-37 -20 -55 -52 -55 -96 0 -35 6 -49 29 -73 l29 -29 511
0 510 0 26 23 c53 46 49 133 -8 167 -31 19 -53 20 -527 20 -341 -1 -501 -4
-515 -12z"/>
<path d="M1574 1616 c-47 -47 -47 -95 0 -142 l34 -34 946 0 c1029 0 988 -2
1014 55 22 47 15 84 -22 121 l-34 34 -952 0 -952 0 -34 -34z"/>
<path d="M1574 1166 c-47 -47 -47 -95 0 -142 l34 -34 952 0 952 0 34 34 c26
26 34 42 34 71 0 29 -8 45 -34 71 l-34 34 -952 0 -952 0 -34 -34z"/>
</g>
</svg>
