<?xml version="1.0" encoding="UTF-8" standalone="no"?>
<svg
   version="1.0"
   width="512.000000pt"
   height="512.000000pt"
   viewBox="0 0 512.000000 512.000000"
   preserveAspectRatio="xMidYMid meet"
   id="svg1"
   sodipodi:docname="inicio.svg"
   inkscape:version="1.4 (86a8ad7, 2024-10-11)"
   xmlns:inkscape="http://www.inkscape.org/namespaces/inkscape"
   xmlns:sodipodi="http://sodipodi.sourceforge.net/DTD/sodipodi-0.dtd"
   xmlns="http://www.w3.org/2000/svg"
   xmlns:svg="http://www.w3.org/2000/svg">
  <defs
     id="defs1" />
  <sodipodi:namedview
     id="namedview1"
     pagecolor="#505050"
     bordercolor="#eeeeee"
     borderopacity="1"
     inkscape:showpageshadow="0"
     inkscape:pageopacity="0"
     inkscape:pagecheckerboard="0"
     inkscape:deskcolor="#505050"
     inkscape:document-units="pt"
     inkscape:zoom="0.78928032"
     inkscape:cx="335.11541"
     inkscape:cy="353.48658"
     inkscape:window-width="1920"
     inkscape:window-height="991"
     inkscape:window-x="-9"
     inkscape:window-y="-9"
     inkscape:window-maximized="1"
     inkscape:current-layer="g1" />
  <g
     transform="translate(0.000000,512.000000) scale(0.100000,-0.100000)"
     fill="#000000"
     stroke="none"
     id="g1">
    <path
       d="m 2397,5096 c -32,-13 -75,-36 -95,-50 C 2281,5032 1776,4531 1178,3933 302,3055 87,2835 66,2793 -30,2599 2,2387 149,2239 c 92,-91 209,-139 343,-139 h 68 v -800 c 0,-541 4,-816 11,-852 38,-182 185,-347 367,-410 66,-23 71,-23 554,-23 124.8677,0 218.4331,-9.4488164 287.2886,0.379096 71.3336,10.181601 242.1443,-5.172449 295.0866,227.567814 21.5193,94.60132 3.5111,259.15498 5.6248,536.05309 l 5,668 30,49 c 38,61 115,110 189,119 28,4 168,5 311,3 l 260,-3 53,-29 c 50,-28 82,-61 113,-116 11,-21 15,-144 19,-692 1.9795,-258.91927 -22.808,-421.40872 5.2008,-515.9958 C 3128.6376,47.774814 3268.5073,20.853349 3510.7394,11.851777 3574.9554,9.4654465 3545.2285,15 3648,15 c 483,0 488,0 554,23 182,63 329,228 367,410 7,36 11,311 11,852 v 800 h 68 c 188,0 352,100 433,265 34,69 34,71 34,205 0,228 115,93 -1169,1376 -1276,1277 -1148,1167 -1366,1172 -113,2 -130,0 -183,-22 z m 247,-286 c 59,-28 2149,-2121 2171,-2172 21,-51 19,-94 -6,-144 -37,-77 -68,-88 -261,-94 -181,-5 -194,-9 -242,-74 -21,-27 -21,-38 -26,-934 l -5,-907 -28,-47 c -15,-26 -42,-59 -60,-72 -70,-54 -91,-56 -473,-56 H 3519.1601 C 3397.2499,309.64236 3361.4946,373.10316 3360,461.94225 V 870 c 0,367 -4,577 -11,612 -39,188 -190,350 -384,411 -66,21 -88,22 -395,22 -358,0 -376,-2 -504,-67 -127,-64 -245,-222 -275,-366 -7,-35 -11,-245 -11,-612 V 463.62204 C 1775.7009,370.20248 1737.073,309.55133 1634.4357,310 H 1426 c -382,0 -403,2 -473,56 -18,13 -45,46 -60,72 l -28,47 -5,907 c -5,896 -5,907 -26,934 -48,65 -61,69 -242,74 -193,6 -224,17 -261,94 -25,50 -27,93 -6,144 21,50 2112,2143 2170,2172 51,25 98,25 149,0 z"
       id="path1"
       sodipodi:nodetypes="cccccscsccssscccccccccsssccscscsccccccccccccsccsccsccsccscccccccccc" />
  </g>
</svg>
