<?xml version="1.0" encoding="UTF-8"?>
<!DOCTYPE svg PUBLIC "-//W3C//DTD SVG 1.1//EN" "http://www.w3.org/Graphics/SVG/1.1/DTD/svg11.dtd">
<svg xmlns="http://www.w3.org/2000/svg" version="1.1" width="512px" height="512px" style="shape-rendering:geometricPrecision; text-rendering:geometricPrecision; image-rendering:optimizeQuality; fill-rule:evenodd; clip-rule:evenodd" xmlns:xlink="http://www.w3.org/1999/xlink">
<g><path style="opacity:0.974" fill="#727272" d="M 22.5,-0.5 C 28.1667,-0.5 33.8333,-0.5 39.5,-0.5C 39.5,17.8333 39.5,36.1667 39.5,54.5C 28.5,54.5 17.5,54.5 6.5,54.5C 6.09656,41.115 6.59656,27.7817 8,14.5C 10.3509,6.98409 15.1842,1.98409 22.5,-0.5 Z"/></g>
<g><path style="opacity:0.998" fill="#808080" d="M 39.5,-0.5 C 179.833,-0.5 320.167,-0.5 460.5,-0.5C 467.393,1.89027 472.226,6.55693 475,13.5C 476.427,27.1069 476.927,40.7736 476.5,54.5C 330.833,54.5 185.167,54.5 39.5,54.5C 39.5,36.1667 39.5,17.8333 39.5,-0.5 Z"/></g>
<g><path style="opacity:1" fill="#f9989e" d="M 69.5,19.5 C 79.2267,19.3011 82.2267,23.6345 78.5,32.5C 72.8624,36.9669 68.3624,35.9669 65,29.5C 64.0769,25.0165 65.5769,21.6832 69.5,19.5 Z"/></g>
<g><path style="opacity:1" fill="#f9c26e" d="M 102.5,19.5 C 110.709,18.8724 114.209,22.5391 113,30.5C 107.67,37.3107 102.67,36.9773 98,29.5C 97.4379,25.2315 98.9379,21.8982 102.5,19.5 Z"/></g>
<g><path style="opacity:1" fill="#b8ef9a" d="M 135.5,19.5 C 143.656,18.8211 147.156,22.4878 146,30.5C 141.829,36.729 137.163,37.0623 132,31.5C 130.593,26.5994 131.76,22.5994 135.5,19.5 Z"/></g>
<g><path style="opacity:0.988" fill="#feaa60" d="M 6.5,55.5 C 17.5,55.5 28.5,55.5 39.5,55.5C 39.0039,174.248 39.5039,292.914 41,411.5C 42.5429,413.378 44.3762,414.878 46.5,416C 157.833,416.5 269.166,416.667 380.5,416.5C 383.146,418.479 385.479,420.812 387.5,423.5C 383.761,426.479 381.427,430.313 380.5,435C 381.423,439.415 383.423,443.249 386.5,446.5C 266.5,446.667 146.5,446.5 26.5,446C 14.8874,444.054 8.38744,437.22 7,425.5C 6.5,302.167 6.33333,178.834 6.5,55.5 Z"/></g>
<g><path style="opacity:0.997" fill="#fec56e" d="M 6.5,55.5 C 6.5,55.1667 6.5,54.8333 6.5,54.5C 17.5,54.5 28.5,54.5 39.5,54.5C 185.167,54.5 330.833,54.5 476.5,54.5C 476.828,179.861 476.495,305.195 475.5,430.5C 461.086,417.589 447.086,404.089 433.5,390C 430.262,388.632 426.928,388.299 423.5,389C 420.669,391.001 418.003,393.167 415.5,395.5C 407.167,386.5 398.5,377.833 389.5,369.5C 398.186,361.105 400.686,351.105 397,339.5C 394.685,335.362 391.852,331.695 388.5,328.5C 384.5,323.833 380.167,319.5 375.5,315.5C 400.845,258.428 394.678,205.094 357,155.5C 311.258,105.373 255.758,90.2067 190.5,110C 172.86,116.52 157.194,126.02 143.5,138.5C 101.206,177.55 85.3726,225.55 96,282.5C 110.088,337.923 144.255,374.756 198.5,393C 226.838,401.666 255.171,401.666 283.5,393C 291.639,390.425 299.639,387.591 307.5,384.5C 313.965,390.464 320.298,396.631 326.5,403C 339.441,409.686 351.108,407.853 361.5,397.5C 368.167,403.5 374.5,409.833 380.5,416.5C 269.166,416.667 157.833,416.5 46.5,416C 44.3762,414.878 42.5429,413.378 41,411.5C 39.5039,292.914 39.0039,174.248 39.5,55.5C 28.5,55.5 17.5,55.5 6.5,55.5 Z"/></g>
<g><path style="opacity:1" fill="#808080" d="M 375.5,315.5 C 369.035,329.447 360.369,341.781 349.5,352.5C 349.103,351.475 348.437,351.308 347.5,352C 301.806,383.126 253.139,388.459 201.5,368C 154.352,345.872 125.185,309.372 114,258.5C 106.599,214.108 116.432,174.108 143.5,138.5C 157.194,126.02 172.86,116.52 190.5,110C 255.758,90.2067 311.258,105.373 357,155.5C 394.678,205.094 400.845,258.428 375.5,315.5 Z"/></g>
<g><path style="opacity:1" fill="#737272" d="M 143.5,138.5 C 116.432,174.108 106.599,214.108 114,258.5C 125.185,309.372 154.352,345.872 201.5,368C 253.139,388.459 301.806,383.126 347.5,352C 348.437,351.308 349.103,351.475 349.5,352.5C 337.298,365.593 323.298,376.26 307.5,384.5C 299.639,387.591 291.639,390.425 283.5,393C 255.171,401.666 226.838,401.666 198.5,393C 144.255,374.756 110.088,337.923 96,282.5C 85.3726,225.55 101.206,177.55 143.5,138.5 Z"/></g>
<g><path style="opacity:1" fill="#deedf3" d="M 230.5,139.5 C 285.783,138.371 324.283,163.037 346,213.5C 359.624,261.516 348.124,302.349 311.5,336C 271.896,364.819 230.229,368.152 186.5,346C 146.057,319.944 127.89,282.777 132,234.5C 143.453,180.545 176.286,148.878 230.5,139.5 Z"/></g>
<g><path style="opacity:1" fill="#f2fafe" d="M 234.5,157.5 C 287.17,158.022 320.003,183.688 333,234.5C 337.397,275.528 322.564,307.361 288.5,330C 249.656,349.883 213.323,346.216 179.5,319C 153.677,293.226 144.511,262.393 152,226.5C 165.169,186.15 192.669,163.15 234.5,157.5 Z"/></g>
<g><path style="opacity:1" fill="#fd99a0" d="M 196.5,187.5 C 198.527,187.338 200.527,187.505 202.5,188C 215.073,201.075 228.073,213.575 241.5,225.5C 254.927,213.575 267.927,201.075 280.5,188C 283.303,187.245 285.97,187.578 288.5,189C 293.667,194.167 298.833,199.333 304,204.5C 304.755,207.303 304.422,209.97 303,212.5C 290.258,224.74 278.091,237.406 266.5,250.5C 278.425,263.927 290.925,276.927 304,289.5C 304.667,291.5 304.667,293.5 304,295.5C 298.167,301.333 292.333,307.167 286.5,313C 284.833,313.667 283.167,313.667 281.5,313C 268.622,299.621 255.289,286.787 241.5,274.5C 228.318,287.515 214.985,300.349 201.5,313C 199.365,313.635 197.365,313.301 195.5,312C 190.333,306.833 185.167,301.667 180,296.5C 178.627,294.305 178.294,291.971 179,289.5C 192.209,276.626 205.042,263.459 217.5,250C 204.96,236.461 192.126,223.294 179,210.5C 178.294,208.029 178.627,205.695 180,203.5C 185.395,197.936 190.895,192.603 196.5,187.5 Z"/></g>
<g><path style="opacity:1" fill="#deedf2" d="M 375.5,315.5 C 380.167,319.5 384.5,323.833 388.5,328.5C 388.54,331.425 387.707,334.091 386,336.5C 375.518,352.987 362.851,367.654 348,380.5C 347.333,381.5 347.333,382.5 348,383.5C 352.369,388.037 356.869,392.37 361.5,396.5C 361.5,396.833 361.5,397.167 361.5,397.5C 351.108,407.853 339.441,409.686 326.5,403C 320.298,396.631 313.965,390.464 307.5,384.5C 323.298,376.26 337.298,365.593 349.5,352.5C 360.369,341.781 369.035,329.447 375.5,315.5 Z"/></g>
<g><path style="opacity:1" fill="#f1f9fd" d="M 388.5,328.5 C 391.852,331.695 394.685,335.362 397,339.5C 400.686,351.105 398.186,361.105 389.5,369.5C 380.167,378.5 370.833,387.5 361.5,396.5C 356.869,392.37 352.369,388.037 348,383.5C 347.333,382.5 347.333,381.5 348,380.5C 362.851,367.654 375.518,352.987 386,336.5C 387.707,334.091 388.54,331.425 388.5,328.5 Z"/></g>
<g><path style="opacity:0.99" fill="#727171" d="M 389.5,369.5 C 398.5,377.833 407.167,386.5 415.5,395.5C 409.703,401.798 403.703,407.965 397.5,414C 420.045,436.389 442.378,459.055 464.5,482C 475.691,490.404 488.025,492.571 501.5,488.5C 496.545,500.46 487.879,508.126 475.5,511.5C 469.833,511.5 464.167,511.5 458.5,511.5C 453.324,509.579 448.324,507.079 443.5,504C 424.271,484.938 405.271,465.772 386.5,446.5C 383.423,443.249 381.423,439.415 380.5,435C 381.427,430.313 383.761,426.479 387.5,423.5C 385.479,420.812 383.146,418.479 380.5,416.5C 374.5,409.833 368.167,403.5 361.5,397.5C 361.5,397.167 361.5,396.833 361.5,396.5C 370.833,387.5 380.167,378.5 389.5,369.5 Z"/></g>
<g><path style="opacity:0.993" fill="#7f7f7f" d="M 475.5,430.5 C 482.131,437.632 488.964,444.632 496,451.5C 504.226,462.918 506.06,475.251 501.5,488.5C 488.025,492.571 475.691,490.404 464.5,482C 442.378,459.055 420.045,436.389 397.5,414C 403.703,407.965 409.703,401.798 415.5,395.5C 418.003,393.167 420.669,391.001 423.5,389C 426.928,388.299 430.262,388.632 433.5,390C 447.086,404.089 461.086,417.589 475.5,430.5 Z"/></g>
</svg>
