<?xml version="1.0" encoding="UTF-8"?>
<!DOCTYPE svg PUBLIC "-//W3C//DTD SVG 1.1//EN" "http://www.w3.org/Graphics/SVG/1.1/DTD/svg11.dtd">
<svg xmlns="http://www.w3.org/2000/svg" version="1.1" width="512px" height="512px" style="shape-rendering:geometricPrecision; text-rendering:geometricPrecision; image-rendering:optimizeQuality; fill-rule:evenodd; clip-rule:evenodd" xmlns:xlink="http://www.w3.org/1999/xlink">
<g><path style="opacity:0.991" fill="#fe4654" d="M 237.5,-0.5 C 249.833,-0.5 262.167,-0.5 274.5,-0.5C 277.997,0.402473 281.663,1.06914 285.5,1.5C 223.758,15.5749 180.092,51.5749 154.5,109.5C 128.92,153.718 129.254,197.718 155.5,241.5C 174.139,285.641 205.473,317.474 249.5,337C 252.295,338.793 254.795,340.96 257,343.5C 267.606,364.043 277.106,385.043 285.5,406.5C 280.012,418.812 274.512,431.145 269,443.5C 259.968,452.765 250.968,452.765 242,443.5C 230.574,418.356 219.074,393.356 207.5,368.5C 207.167,368.5 206.833,368.5 206.5,368.5C 203.579,359.241 199.413,350.574 194,342.5C 192.075,341.12 190.241,339.62 188.5,338C 123.244,308.029 87.0777,257.195 80,185.5C 78.7627,114.128 108.263,59.6282 168.5,22C 190.216,10.1495 213.216,2.64947 237.5,-0.5 Z"/></g>
<g><path style="opacity:0.99" fill="#fe626d" d="M 285.5,1.5 C 346.496,14.0034 390.329,48.3367 417,104.5C 439.171,160.276 435.505,214.276 406,266.5C 385.585,298.909 357.751,322.743 322.5,338C 317.586,341.921 313.753,346.754 311,352.5C 308.538,357.752 306.371,363.085 304.5,368.5C 303.542,368.953 302.708,369.619 302,370.5C 296.725,382.71 291.225,394.71 285.5,406.5C 277.106,385.043 267.606,364.043 257,343.5C 254.795,340.96 252.295,338.793 249.5,337C 205.473,317.474 174.139,285.641 155.5,241.5C 193.196,290.228 241.53,305.061 300.5,286C 347.682,264.125 372.682,227.125 375.5,175C 372.033,117.703 343.367,79.3693 289.5,60C 233.599,46.9103 188.599,63.4103 154.5,109.5C 180.092,51.5749 223.758,15.5749 285.5,1.5 Z"/></g>
<g><path style="opacity:0.959" fill="#ff626d" d="M 246.5,106.5 C 271.573,103.772 288.407,114.106 297,137.5C 301.129,162.08 291.962,179.58 269.5,190C 264.668,195.127 262.501,201.293 263,208.5C 258,213.833 253,213.833 248,208.5C 245.841,188.981 254.008,175.815 272.5,169C 282.233,159.179 284.066,148.012 278,135.5C 268.75,122.751 256.917,119.584 242.5,126C 233.085,132.66 228.251,141.827 228,153.5C 222.377,158.689 217.377,158.022 213,151.5C 212.088,135.222 218.255,122.389 231.5,113C 236.367,110.226 241.367,108.059 246.5,106.5 Z"/></g>
<g><path style="opacity:0.919" fill="#ff626d" d="M 251.5,229.5 C 260.158,228.327 263.992,231.994 263,240.5C 259.108,246.259 254.441,246.926 249,242.5C 246.463,237.395 247.296,233.061 251.5,229.5 Z"/></g>
<g><path style="opacity:0.988" fill="#00c63a" d="M 206.5,368.5 C 206.833,368.5 207.167,368.5 207.5,368.5C 204.245,370.926 201.412,373.926 199,377.5C 178.587,415.327 157.921,452.994 137,490.5C 134.808,501.074 138.642,508.074 148.5,511.5C 128.167,511.5 107.833,511.5 87.5,511.5C 78.9758,507.108 75.8092,500.108 78,490.5C 98.746,452.006 119.746,413.673 141,375.5C 143.365,372.131 146.532,369.964 150.5,369C 169.164,368.5 187.83,368.333 206.5,368.5 Z"/></g>
<g><path style="opacity:0.998" fill="#73d477" d="M 207.5,368.5 C 219.074,393.356 230.574,418.356 242,443.5C 250.968,452.765 259.968,452.765 269,443.5C 274.512,431.145 280.012,418.812 285.5,406.5C 291.225,394.71 296.725,382.71 302,370.5C 302.708,369.619 303.542,368.953 304.5,368.5C 323.17,368.333 341.836,368.5 360.5,369C 364.468,369.964 367.635,372.131 370,375.5C 391.254,413.673 412.254,452.006 433,490.5C 435.191,500.108 432.024,507.108 423.5,511.5C 331.833,511.5 240.167,511.5 148.5,511.5C 138.642,508.074 134.808,501.074 137,490.5C 157.921,452.994 178.587,415.327 199,377.5C 201.412,373.926 204.245,370.926 207.5,368.5 Z"/></g>
</svg>
