<?xml version="1.0" encoding="UTF-8" standalone="no"?>
<svg
   version="1.0"
   width="700pt"
   height="525pt"
   viewBox="0 0 700 525"
   preserveAspectRatio="xMidYMid"
   id="svg3"
   sodipodi:docname="nuevo.svg"
   inkscape:version="1.4 (86a8ad7, 2024-10-11)"
   xmlns:inkscape="http://www.inkscape.org/namespaces/inkscape"
   xmlns:sodipodi="http://sodipodi.sourceforge.net/DTD/sodipodi-0.dtd"
   xmlns="http://www.w3.org/2000/svg"
   xmlns:svg="http://www.w3.org/2000/svg">
  <defs
     id="defs3" />
  <sodipodi:namedview
     id="namedview3"
     pagecolor="#505050"
     bordercolor="#eeeeee"
     borderopacity="1"
     inkscape:showpageshadow="0"
     inkscape:pageopacity="0"
     inkscape:pagecheckerboard="0"
     inkscape:deskcolor="#505050"
     inkscape:document-units="pt"
     showgrid="false"
     inkscape:zoom="0.39464016"
     inkscape:cx="173.57585"
     inkscape:cy="255.92935"
     inkscape:window-width="1920"
     inkscape:window-height="991"
     inkscape:window-x="-9"
     inkscape:window-y="-9"
     inkscape:window-maximized="1"
     inkscape:current-layer="svg3" />
  <g
     transform="matrix(0.09664024,0,0,-0.1,-11.240045,500.73964)"
     fill="#000000"
     stroke="none"
     id="g3">
    <path
       id="path1"
       d="m 4590.5001,4890.948 c -12,0 -550.001,-256.0039 -1196.001,-569.0039 -646.0001,-312 -1188.9092,-582.5293 -1196.9092,-592.5293 -2.7162,-18.3266 -3.5843,-279.951 -3.8305,-999.2493 -0.014,-41.6071 1.1563,-98.7867 20.1557,-110.4521 18.9995,-11.6655 87.7545,-13.9022 107.972,2.3755 20.2174,16.2777 22.6707,62.7479 22.7265,104.5125 0.5866,439.6194 1.5003,845.3427 2.8884,845.3427 2,0 376.0019,-180.0049 832.002,-400.0049 486,-235 838.9961,-399.9902 855.9961,-399.9902 15,0 37.0029,8.9951 48.0029,19.9951 25,25 25.9883,80.9932 2.9883,102.9932 -10,8 -224.9932,115.0117 -477.9932,237.0117 -807,389 -857.002,412.9902 -1012.002,489.9902 l -151.9922,75 366.9873,177.0117 c 202,97 372.0069,176.9971 377.0069,176.9971 6,0 513.9951,-244.0068 1129.9951,-542.0068 l 1120.0049,-541.9922 3.0029,-465 c 2,-460 1.9942,-464.002 23.9942,-487.002 12,-13 31.9961,-22.998 45.9961,-22.998 28,0 606.0088,275.9931 624.0088,297.9931 10,11 14.0029,128.9952 18.0029,484.9952 l 4.9951,470.0097 338.9941,162.9932 c 187,90 341.0079,164.0039 343.0079,164.0039 2,0 3.0029,-575.0029 3.0029,-1278.0029 V 1015.9382 L 5767.502,496.94414 c -592,-286 -1080.0098,-520.993156 -1085.0098,-522.993156 -5,-2 -8.9941,534.000076 -8.9941,1274.999916 V 2527.95 l 236.9971,113.9941 c 131,63 251.0078,122.0049 268.0078,130.0049 42,21 59.9931,62.0019 42.9931,97.0019 -7,15 -26.0009,33.9864 -41.0009,40.9864 -27,13 -37.9951,9.0019 -229.9951,-82.9981 -111,-54 -237.0049,-112.9931 -280.0049,-132.9931 l -76.9922,-36.0059 -93.0029,43.0078 c -50,24 -104.004,47.9941 -119.004,53.9941 -39,16 -78.999,-0.9941 -93.999,-38.9941 -21,-51 -1.9922,-72.0039 118.0078,-134.0039 l 107.9883,-55.0049 V 1248.9509 c 0,-702.99984 -3.998,-1276.999916 -7.998,-1274.999916 -5,1 -492.9951,236.993156 -1084.9951,522.993156 L 2343.5029,1016.949 v 859.194 c 0,0 0.2749,77.4837 -14.2535,106.3655 -14.5283,28.8817 -108.7787,27.8601 -121.8312,0 -13.0524,-27.8602 -13.0072,-74.9152 -12.9677,-119.4318 0.6501,-731.8759 3.3379,-923.81576 17.0407,-939.13056 19,-23 2355.0079,-1151.99711 2383.0079,-1151.99711 27,0 2362.001,1128.99711 2381.001,1151.99711 17,19 18.0029,100.99306 18.0029,1407.99306 0,1307 -1.0069,1389.0078 -17.0069,1408.0078 -23,26 -2356.996,1152.001 -2385.996,1151.001 z m 12.9931,-165 c 8,-3 493.0117,-235.0019 1077.0117,-517.0019 583,-282 1059.9981,-513.9952 1057.9981,-514.9952 -2,-2 -141.0049,-71.0068 -310.0049,-152.0068 l -306.0059,-149.0039 -156.9873,78.0029 c -86,42 -568.0136,275.002 -1069.0136,517.002 -502,241 -912.9932,442.0049 -912.9932,445.0049 0,12 604.9951,297.998 619.9951,292.998 z m -802.0019,-384.0088 c 8,0 493.0078,-230.9922 1078.0078,-511.9922 585,-282 1064.0039,-514.998 1064.0039,-517.998 0,-5 -421.0117,-210 -432.0117,-210 -5,0 -504.9864,239.9883 -1720.9864,827.9883 l -428.0127,207.0117 33.003,15 c 18,8 114.0068,53.9971 212.0068,101.9971 99,49 185.9893,87.9931 193.9893,87.9931 z m 2190,-1181.001 c 9,1 12.0117,-82.997 12.0117,-386.997 v -389.0039 l -198.999,-95.9912 c -110,-54 -202.0049,-97.002 -205.0049,-97.002 -3,0 -6.0059,175 -6.0059,390 v 389.0039 l 193.0078,94.9951 c 105,52 197.9903,94.9951 204.9903,94.9951 z"
       sodipodi:nodetypes="cccszzsscsscccccsccccsccccssccsscccccccccccccscccczzscscscccscccccscscssccccscsccssccc" />
    <path
       d="m 2534.4981,1805.9441 c -24,-30 -27,-62 -8,-87 17,-24 687,-347 718,-347 62,0 96,78 53,120 -30,30 -681,340 -714,340 -19,0 -35,-9 -49,-26 z"
       id="path2" />
    <path
       d="m 2553.4981,1468.9441 c -35,-18 -48,-61 -30,-95 20,-35 357,-205 409,-205 63,-2 95,77 49,120 -23,22 -344,179 -382,188 -12,3 -32,-1 -46,-8 z"
       id="path3" />
  </g>
  <g
     id="g10"
     transform="matrix(1.2649635,0,0,1.2649635,219.21844,-55.567815)">
    <g
       id="g11">
      <rect
         style="fill:#000000;stroke-width:0.972731;paint-order:normal"
         id="rect5"
         width="220"
         height="32"
         x="-163.76901"
         y="240.38171"
         ry="16" />
      <rect
         style="fill:#000000;stroke-width:0.97273"
         id="rect5-4"
         width="32"
         height="220"
         x="-68.581154"
         y="147.5274"
         ry="16" />
    </g>
  </g>
</svg>
