<?xml version="1.0" encoding="UTF-8"?>
<!DOCTYPE svg PUBLIC "-//W3C//DTD SVG 1.1//EN" "http://www.w3.org/Graphics/SVG/1.1/DTD/svg11.dtd">
<svg xmlns="http://www.w3.org/2000/svg" version="1.1" width="512px" height="512px" style="shape-rendering:geometricPrecision; text-rendering:geometricPrecision; image-rendering:optimizeQuality; fill-rule:evenodd; clip-rule:evenodd" xmlns:xlink="http://www.w3.org/1999/xlink">
<g><path style="opacity:0.958" fill="#000000" d="M 97.5,-0.5 C 100.833,-0.5 104.167,-0.5 107.5,-0.5C 116.106,8.27592 124.606,17.2759 133,26.5C 141.394,17.2759 149.894,8.27592 158.5,-0.5C 161.833,-0.5 165.167,-0.5 168.5,-0.5C 177.118,8.45285 185.784,17.4528 194.5,26.5C 202.515,16.8191 211.182,7.81909 220.5,-0.5C 223.5,-0.5 226.5,-0.5 229.5,-0.5C 238.118,8.45285 246.784,17.4528 255.5,26.5C 264.216,17.4528 272.882,8.45285 281.5,-0.5C 284.5,-0.5 287.5,-0.5 290.5,-0.5C 299.818,7.81909 308.485,16.8191 316.5,26.5C 323.489,19.3434 330.322,12.01 337,4.5C 338.965,2.44965 341.132,0.782988 343.5,-0.5C 346.167,-0.5 348.833,-0.5 351.5,-0.5C 360.746,7.91448 369.579,16.9145 378,26.5C 386.394,17.2759 394.894,8.27592 403.5,-0.5C 406.833,-0.5 410.167,-0.5 413.5,-0.5C 416.228,1.06914 418.062,3.40247 419,6.5C 419.667,172.5 419.667,338.5 419,504.5C 418.033,507.621 416.2,509.954 413.5,511.5C 410.5,511.5 407.5,511.5 404.5,511.5C 395.199,503.032 386.366,494.032 378,484.5C 369.606,493.724 361.106,502.724 352.5,511.5C 349.167,511.5 345.833,511.5 342.5,511.5C 333.894,502.724 325.394,493.724 317,484.5C 308.634,494.032 299.801,503.032 290.5,511.5C 287.5,511.5 284.5,511.5 281.5,511.5C 272.882,502.547 264.216,493.547 255.5,484.5C 246.784,493.547 238.118,502.547 229.5,511.5C 226.5,511.5 223.5,511.5 220.5,511.5C 211.628,502.809 202.961,493.809 194.5,484.5C 185.784,493.547 177.118,502.547 168.5,511.5C 165.167,511.5 161.833,511.5 158.5,511.5C 149.894,502.724 141.394,493.724 133,484.5C 124.606,493.724 116.106,502.724 107.5,511.5C 104.167,511.5 100.833,511.5 97.5,511.5C 94.8001,509.954 92.9668,507.621 92,504.5C 91.3333,338.5 91.3333,172.5 92,6.5C 92.9668,3.37935 94.8001,1.04602 97.5,-0.5 Z M 162.5,27.5 C 165.731,29.2199 168.564,31.5532 171,34.5C 176.167,40.3333 181.333,46.1667 186.5,52C 191.006,54.8141 195.673,55.1474 200.5,53C 208.345,44.3228 216.345,35.8228 224.5,27.5C 232.625,36.1257 240.958,44.6257 249.5,53C 253.5,55 257.5,55 261.5,53C 269.957,44.554 278.29,36.054 286.5,27.5C 294.655,35.8228 302.655,44.3228 310.5,53C 315.327,55.1474 319.994,54.8141 324.5,52C 332.011,43.6563 339.678,35.4896 347.5,27.5C 356.013,36.5126 364.68,45.3459 373.5,54C 377.295,54.8372 380.961,54.5039 384.5,53C 389.015,48.7852 393.182,44.2852 397,39.5C 397.667,183.5 397.667,327.5 397,471.5C 393.201,466.699 389.034,462.199 384.5,458C 380.167,456 375.833,456 371.5,458C 363.655,466.677 355.655,475.177 347.5,483.5C 339.345,475.177 331.345,466.677 323.5,458C 319.167,456 314.833,456 310.5,458C 302.655,466.677 294.655,475.177 286.5,483.5C 278.678,475.51 271.011,467.344 263.5,459C 258.167,455.667 252.833,455.667 247.5,459C 240,467.167 232.5,475.333 225,483.5C 217.179,474.712 209.012,466.212 200.5,458C 195.603,455.768 190.937,456.101 186.5,459C 178.989,467.344 171.322,475.51 163.5,483.5C 154.987,474.487 146.32,465.654 137.5,457C 133.705,456.163 130.039,456.496 126.5,458C 121.966,462.199 117.799,466.699 114,471.5C 113.333,327.5 113.333,183.5 114,39.5C 117.818,44.2852 121.985,48.7852 126.5,53C 130.039,54.5039 133.705,54.8372 137.5,54C 140.965,51.5374 144.131,48.7041 147,45.5C 152.376,39.6279 157.543,33.6279 162.5,27.5 Z"/></g>
<g><path style="opacity:0.945" fill="#000000" d="M 253.5,93.5 C 259.583,93.2856 263.75,95.9523 266,101.5C 266.176,104.882 266.676,108.215 267.5,111.5C 285.478,119.128 292.645,132.461 289,151.5C 283.231,157.409 277.231,157.742 271,152.5C 269.228,147.547 267.562,142.547 266,137.5C 259.036,129.703 252.036,129.703 245,137.5C 240.767,146.135 242.934,152.635 251.5,157C 279.416,158.909 292.249,173.742 290,201.5C 286.525,213.474 279.025,221.807 267.5,226.5C 268.928,236.35 264.928,242.35 255.5,244.5C 246.072,242.35 242.072,236.35 243.5,226.5C 225.522,218.872 218.355,205.539 222,186.5C 227.747,180.376 233.747,180.042 240,185.5C 241.772,190.453 243.438,195.453 245,200.5C 254.28,209.083 261.946,207.75 268,196.5C 269.211,189.088 266.378,183.921 259.5,181C 231.58,179.087 218.747,164.254 221,136.5C 224.447,124.551 231.947,116.218 243.5,111.5C 242.24,102.666 245.574,96.6657 253.5,93.5 Z"/></g>
<g><path style="opacity:0.958" fill="#000000" d="M 203.5,302.5 C 238.168,302.333 272.835,302.5 307.5,303C 313.486,307.168 314.986,312.668 312,319.5C 310.363,321.81 308.196,323.31 305.5,324C 272.167,324.667 238.833,324.667 205.5,324C 198.188,320.54 196.021,315.04 199,307.5C 200.366,305.638 201.866,303.972 203.5,302.5 Z"/></g>
<g><path style="opacity:0.928" fill="#000000" d="M 162.5,345.5 C 224.501,345.333 286.501,345.5 348.5,346C 358.062,349.411 360.396,355.578 355.5,364.5C 353.869,366.297 351.869,367.464 349.5,368C 286.833,368.667 224.167,368.667 161.5,368C 153.154,364.445 150.987,358.612 155,350.5C 157.17,348.177 159.67,346.51 162.5,345.5 Z"/></g>
<g><path style="opacity:0.927" fill="#000000" d="M 161.5,390.5 C 224.168,390.333 286.834,390.5 349.5,391C 358.201,394.964 360.201,401.131 355.5,409.5C 353.705,411.703 351.371,412.869 348.5,413C 286.5,413.667 224.5,413.667 162.5,413C 153.581,409.909 151.081,404.076 155,395.5C 156.805,393.174 158.972,391.508 161.5,390.5 Z"/></g>
</svg>
