<svg width="512pt" height="512pt" version="1.0" viewBox="0 0 512 512" xmlns="http://www.w3.org/2000/svg">
 <g transform="matrix(.12434 0 0 -.12434 -56.324 583.45)">
  <path d="m2449 4310c-382-47-694-314-805-687-32-108-43-293-24-409 36-224 158-439 332-583 89-74 260-162 378-193 119-32 346-32 465 0 113 31 286 119 373 192 174 146 296 360 332 584 19 116 8 301-24 409-81 271-273 495-523 609-143 64-352 97-504 78zm197-301c215-30 401-163 494-353 52-106 70-181 70-291 0-187-56-321-190-456-69-70-101-94-170-128-193-94-387-94-580 0-68 34-102 59-171 128-133 134-189 268-189 456 0 110 18 185 69 290 104 211 320 350 568 364 12 0 56-4 99-10z"/>
 </g>
 <path d="m59.771 486.19h44.306s14.911-159.7 162.97-156.55c148.06 3.1425 161.37 156.55 161.37 156.55l39.242-2.3631s-5.394-190.46-203.78-190.23c-198.39 0.23569-204.11 192.59-204.11 192.59z" style="stroke-width:.96528"/>
</svg>
